<svg xmlns="http://www.w3.org/2000/svg" viewBox="0 0 1000 430"><defs><linearGradient id="g" x1="0" x2="1"><stop stop-color="#D7263D"/><stop offset="1" stop-color="#ff7a8b"/></linearGradient></defs><rect width="1000" height="430" rx="28" fill="#120d0f"/><g stroke="#3b2529" stroke-width="1"><path d="M100 330H920M100 250H920M100 170H920M100 90H920"/></g><path d="M100 330 C210 315 235 250 340 260 S510 210 590 190 S760 110 920 72" fill="none" stroke="url(#g)" stroke-width="7"/><path d="M100 330 C210 315 235 250 340 260 S510 210 590 190 S760 110 920 72 L920 330 L100 330Z" fill="#D7263D" opacity=".10"/><g fill="#fff" font-family="Montserrat,Arial" font-size="20"><text x="100" y="375">Information</text><text x="360" y="375">Clarté</text><text x="590" y="375">Preuve</text><text x="820" y="375">Action</text></g><text x="100" y="48" fill="#fff" font-family="Montserrat,Arial" font-size="25" font-weight="700">Clarté éditoriale → confiance → conversion</text></svg>